Coordinates
version=1
nRows=16
nColumns=40
inDegrees=yes

Units are S.I. units (second, meters, Newtons, ...)
If the header above contains a line with 'inDegrees', this indicates whether rotational values are in degrees (yes) or radians (no).

endheader
time	pelvis_tilt	pelvis_list	pelvis_rotation	pelvis_tx	pelvis_ty	pelvis_tz	hip_flexion_r	hip_adduction_r	hip_rotation_r	knee_angle_r	knee_angle_r_beta	ankle_angle_r	subtalar_angle_r	mtp_angle_r	hip_flexion_l	hip_adduction_l	hip_rotation_l	knee_angle_l	knee_angle_l_beta	ankle_angle_l	subtalar_angle_l	mtp_angle_l	lumbar_extension	lumbar_bending	lumbar_rotation	arm_flex_r	arm_add_r	arm_rot_r	elbow_flex_r	pro_sup_r	wrist_flex_r	wrist_dev_r	arm_flex_l	arm_add_l	arm_rot_l	elbow_flex_l	pro_sup_l	wrist_flex_l	wrist_dev_l
      5.05000000	     -1.10915255	     -3.40145589	     -7.60304140	     -0.30160231	      0.81430883	     -0.99290631	     15.77979286	     -6.47832186	      1.82153103	    100.74846450	      1.75839242	    -17.87218179	      0.00000000	      0.00000000	     43.88144135	     -6.29197396	     -8.89402317	     87.19366435	      1.52181653	     31.67719560	      0.00000000	      0.00000000	    -12.66046493	     -2.25604037	     10.29941436	     89.93814327	    -12.13500149	     24.56812336	     37.97472297	     79.33284349	      0.00000000	      0.00000000	     89.94999967	    -18.61757037	     34.59570919	     48.81888771	     75.01949208	      0.00000000	      0.00000000
      5.05500000	     -1.12220464	     -3.37924236	     -7.59823696	     -0.30166929	      0.81409499	     -0.99281859	     15.78093943	     -6.50956274	      1.82193302	    100.74783573	      1.75838145	    -17.86212698	      0.00000000	      0.00000000	     43.92263015	     -6.31625382	     -8.93727031	     87.23460034	      1.52253100	     31.56566915	      0.00000000	      0.00000000	    -12.66612579	     -2.29955631	     10.33791504	     89.93805905	    -12.20249792	     23.94232127	     37.92226208	     83.98710648	      0.00000000	      0.00000000	     89.95016352	    -18.45882657	     34.17890415	     48.56094894	     80.83611268	      0.00000000	      0.00000000
      5.06000000	     -1.12919705	     -3.33541774	     -7.54365180	     -0.30170678	      0.81384329	     -0.99286504	     15.76470206	     -6.60107189	      1.76636658	    100.74278704	      1.75829333	    -17.89652559	      0.00000000	      0.00000000	     43.95024426	     -6.23251330	     -8.90981206	     87.26515271	      1.52306424	     31.73138931	      0.00000000	      0.00000000	    -12.68772015	     -2.32197327	     10.22409751	     89.93795707	    -12.11366950	     24.43247765	     37.99603373	     79.21487753	      0.00000000	      0.00000000	     89.95031544	    -18.55675236	     34.50575909	     48.72175208	     76.19043091	      0.00000000	      0.00000000
      5.06500000	     -1.10366230	     -3.27749873	     -7.51957216	     -0.30171993	      0.81370874	     -0.99283772	     15.70485730	     -6.70048235	      1.73586287	    100.73502061	      1.75815778	    -17.73692293	      0.00000000	      0.00000000	     43.95315669	     -6.18623407	     -8.95781329	     87.27560798	      1.52324672	     31.51465549	      0.00000000	      0.00000000	    -12.72605238	     -2.42360159	     10.24026188	     89.93812791	    -12.20299205	     23.71637479	     37.92845011	     84.26906744	      0.00000000	      0.00000000	     89.95023417	    -18.39554478	     34.28089731	     48.55760158	     79.05026488	      0.00000000	      0.00000000
      5.07000000	     -1.11779354	     -3.26351267	     -7.49456423	     -0.30194820	      0.81351047	     -0.99282828	     15.72857085	     -6.71960940	      1.73588467	    100.73192104	      1.75810368	    -17.72312268	      0.00000000	      0.00000000	     44.00775524	     -6.17178408	     -8.94819068	     87.30453809	      1.52375164	     31.54693694	      0.00000000	      0.00000000	    -12.76038697	     -2.43581807	     10.16900632	     89.93822481	    -12.15034944	     23.62529784	     37.90125654	     84.29890023	      0.00000000	      0.00000000	     89.95037251	    -18.39743204	     34.13397050	     48.60249014	     79.07550960	      0.00000000	      0.00000000
      5.07500000	     -1.19583948	     -3.31657650	     -7.43520378	     -0.30203721	      0.81317085	     -0.99285004	     15.77504944	     -6.68241528	      1.64041084	    100.72620428	      1.75800391	    -17.79673508	      0.00000000	      0.00000000	     44.14867417	     -6.18053341	     -8.83816741	     87.38165861	      1.52509765	     31.56530097	      0.00000000	      0.00000000	    -12.70623381	     -2.37607077	     10.17719457	     89.93801368	    -12.25998727	     23.65570548	     37.89086653	     84.18515178	      0.00000000	      0.00000000	     89.95045617	    -18.25988731	     34.00709699	     48.53733427	     79.19064748	      0.00000000	      0.00000000
      5.08000000	     -1.22204989	     -3.27822725	     -7.39095951	     -0.30205674	      0.81291184	     -0.99282049	     15.77335887	     -6.73649960	      1.61575517	    100.72483324	      1.75797998	    -17.79877888	      0.00000000	      0.00000000	     44.21053044	     -6.12935110	     -8.83315512	     87.41855818	      1.52574167	     31.52223067	      0.00000000	      0.00000000	    -12.70482260	     -2.40540188	     10.10742570	     89.93798807	    -12.23813478	     23.59453204	     37.91497951	     83.97321367	      0.00000000	      0.00000000	     89.95045763	    -18.30638846	     33.98674253	     48.57792679	     80.67199046	      0.00000000	      0.00000000
      5.08500000	     -1.28232768	     -3.28843615	     -7.40632581	     -0.30221962	      0.81262163	     -0.99265006	     15.82545275	     -6.67093665	      1.68010750	    100.76405807	      1.75866458	    -17.57677566	      0.00000000	      0.00000000	     44.31785183	     -6.18874214	     -8.84245889	     87.47472794	      1.52672201	     31.35084555	      0.00000000	      0.00000000	    -12.66091593	     -2.37899808	     10.09571790	     89.93800125	    -11.89718472	     23.42285211	     37.54528116	     78.47112266	      0.00000000	      0.00000000	     89.95035733	    -18.23966701	     34.05521478	     48.48802165	     75.85228804	      0.00000000	      0.00000000
      5.09000000	     -1.20994057	     -3.25819450	     -7.28687684	     -0.30214022	      0.81250190	     -0.99278341	     15.69376462	     -6.78051686	      1.56577918	    100.71477274	      1.75780439	    -17.73762453	      0.00000000	      0.00000000	     44.27121085	     -6.03700869	     -8.74045859	     87.49484530	      1.52707313	     31.59408458	      0.00000000	      0.00000000	    -12.77548108	     -2.44608427	     10.05271255	     89.93800853	    -12.33633701	     23.36778461	     37.91972632	     84.51099715	      0.00000000	      0.00000000	     89.95062481	    -18.18295898	     34.02853843	     48.66619452	     78.14031878	      0.00000000	      0.00000000
      5.09500000	     -1.21918104	     -3.18721617	     -7.29386588	     -0.30210620	      0.81234697	     -0.99274425	     15.69344063	     -6.86285917	      1.58788897	    100.72111261	      1.75791504	    -17.73187461	      0.00000000	      0.00000000	     44.27941161	     -5.96652911	     -8.77539336	     87.49438887	      1.52706516	     31.61077703	      0.00000000	      0.00000000	    -12.78001603	     -2.51982059	     10.05285510	     89.93787907	    -12.35279638	     23.45384477	     37.92302246	     83.94488662	      0.00000000	      0.00000000	     89.95054168	    -18.15913916	     33.90395336	     48.60986704	     80.92442966	      0.00000000	      0.00000000
      5.10000000	     -1.25993319	     -3.12181284	     -7.26118337	     -0.30222850	      0.81199577	     -0.99276349	     15.74313996	     -6.95379593	      1.58262263	    100.75866731	      1.75857049	    -17.77226679	      0.00000000	      0.00000000	     44.36938976	     -5.86896882	     -8.76869552	     87.53375118	      1.52775216	     31.58789199	      0.00000000	      0.00000000	    -12.75956271	     -2.57590283	     10.04119487	     89.93787857	    -12.39505334	     23.38616420	     37.94407201	     83.90627975	      0.00000000	      0.00000000	     89.95071551	    -18.11926619	     33.90082474	     48.63364685	     80.91320859	      0.00000000	      0.00000000
      5.10500000	     -1.28862441	     -3.09386484	     -7.21508749	     -0.30231542	      0.81173397	     -0.99270613	     15.74946714	     -6.99266544	      1.56586233	    100.76335027	      1.75865223	    -17.76018101	      0.00000000	      0.00000000	     44.44714173	     -5.81461095	     -8.74032748	     87.58002259	      1.52855975	     31.64211061	      0.00000000	      0.00000000	    -12.76040438	     -2.60633882	      9.99646844	     89.93792552	    -12.39355104	     23.24067179	     37.91512411	     84.30720628	      0.00000000	      0.00000000	     89.95081745	    -18.10119365	     33.98865339	     48.68300380	     78.97197451	      0.00000000	      0.00000000
      5.11000000	     -1.32844397	     -3.10188865	     -7.15690909	     -0.30233954	      0.81142789	     -0.99258773	     15.75338158	     -6.98196925	      1.53242898	    100.76711132	      1.75871787	    -17.80874090	      0.00000000	      0.00000000	     44.52679637	     -5.79178487	     -8.68424375	     87.62153260	      1.52928424	     31.66356721	      0.00000000	      0.00000000	    -12.74425286	     -2.60296789	      9.94373634	     89.93801364	    -12.43368984	     23.64395034	     37.96241648	     81.38070620	      0.00000000	      0.00000000	     89.95085938	    -18.10360794	     34.13993415	     48.82442720	     76.47346912	      0.00000000	      0.00000000
      5.11500000	     -1.35195876	     -3.11260674	     -7.13018800	     -0.30247822	      0.81123778	     -0.99243031	     15.76174755	     -6.93469176	      1.55345983	    100.77354458	      1.75883015	    -17.68643209	      0.00000000	      0.00000000	     44.60210609	     -5.79735651	     -8.63985345	     87.67072959	      1.53014289	     31.61905395	      0.00000000	      0.00000000	    -12.74862326	     -2.60758429	      9.98151027	     89.93807296	    -12.48077955	     23.10076303	     37.89293099	     84.49086742	      0.00000000	      0.00000000	     89.95106690	    -17.96083881	     33.98683330	     48.70089904	     78.04700818	      0.00000000	      0.00000000
      5.12000000	     -1.43983066	     -3.19986482	     -7.08392701	     -0.30261903	      0.81084130	     -0.99238021	     15.83318225	     -6.84269018	      1.50254169	    100.79975653	      1.75928764	    -17.70135822	      0.00000000	      0.00000000	     44.76654565	     -5.85551901	     -8.54401218	     87.76568359	      1.53180015	     31.65147940	      0.00000000	      0.00000000	    -12.69116584	     -2.49888986	      9.98922468	     89.93827405	    -12.53875962	     23.12349872	     37.94591874	     84.13646338	      0.00000000	      0.00000000	     89.95104865	    -17.85951277	     33.90814188	     48.59762970	     78.49982044	      0.00000000	      0.00000000
      5.12500000	     -1.43607894	     -3.20378834	     -7.05239642	     -0.30267775	      0.81057504	     -0.99229214	     15.81151522	     -6.83775110	      1.52713801	    100.82933329	      1.75980385	    -17.69326048	      0.00000000	      0.00000000	     44.79581906	     -5.82655457	     -8.47567162	     87.81569375	      1.53267299	     31.68458424	      0.00000000	      0.00000000	    -12.72842154	     -2.48935262	      9.96136916	     89.93831253	    -12.48680321	     22.91636692	     37.92012813	     84.23010923	      0.00000000	      0.00000000	     89.95127330	    -17.88533839	     33.92056268	     48.68643527	     79.32195962	      0.00000000	      0.00000000
